PathFileType  4	(X/Y/Z) C:\Users\antoi\Documents\MyRepositories\mobilecap\ResultsAnalysis
DataRate	CameraRate	NumFrames	NumMarkers	Units	OrigDataRate	OrigDataStartFrame	OrigNumFrames
100.0	100.0	4	51	mm	100.0	196	261
Frame#	Time	r_knee			r_shank_antsup			r_ankle			r_calc			r_5meta			r_toe			L_knee			L_shank_antsup			L_ankle			L_calc			L_5meta			L_toe			r_sh2			r_sh3			r_sh4			L_sh2			L_sh3			r_thigh1			r_thigh2			r_thigh3			r_thigh4			r_thigh5			L_thigh1			L_thigh2			L_thigh3			L_thigh4			r.ASIS			r.PSIS			L.ASIS			L.PSIS			C7			R_Shoulder			L_Shoulder			R_Sternum			L_Sternum			R_humerus			R_elbow_med			R_elbow_lat			R_forearm			R_wrist_radius			R_wrist_ulna			L_humerus			L_elbow_med			L_elbow_lat			L_forearm			L_wrist_radius			L_wrist_ulna			R_HJC			L_HJC			R_HJC_reg			L_HJC_reg			
		X1	Y1	Z1	X2	Y2	Z2	X3	Y3	Z3	X4	Y4	Z4	X5	Y5	Z5	X6	Y6	Z6	X7	Y7	Z7	X8	Y8	Z8	X9	Y9	Z9	X10	Y10	Z10	X11	Y11	Z11	X12	Y12	Z12	X13	Y13	Z13	X14	Y14	Z14	X15	Y15	Z15	X16	Y16	Z16	X17	Y17	Z17	X18	Y18	Z18	X19	Y19	Z19	X20	Y20	Z20	X21	Y21	Z21	X22	Y22	Z22	X23	Y23	Z23	X24	Y24	Z24	X25	Y25	Z25	X26	Y26	Z26	X27	Y27	Z27	X28	Y28	Z28	X29	Y29	Z29	X30	Y30	Z30	X31	Y31	Z31	X32	Y32	Z32	X33	Y33	Z33	X34	Y34	Z34	X35	Y35	Z35	X36	Y36	Z36	X37	Y37	Z37	X38	Y38	Z38	X39	Y39	Z39	X40	Y40	Z40	X41	Y41	Z41	X42	Y42	Z42	X43	Y43	Z43	X44	Y44	Z44	X45	Y45	Z45	X46	Y46	Z46	X47	Y47	Z47	X48	Y48	Z48	X49	Y49	Z49	X50	Y50	Z50	X51	Y51	Z51	

196	1.95000000	-201.80379	750.86161	-400.09406	-159.19532	658.06431	-398.09594	-204.86523	316.56541	-420.22982	-280.23830	317.71415	-489.24028	-144.14076	182.93544	-388.17491	-63.02053	196.46936	-425.81422	-115.77312	791.37576	-788.79018	-107.63339	706.59553	-816.67837	-119.14630	366.39465	-787.81980	-200.49329	361.60769	-723.47985	-59.41413	235.74253	-818.15590	13.68155	234.14550	-765.14964	-174.61769	548.39354	-372.86588	-228.74161	672.91230	-371.25960	-256.28466	560.23532	-369.25611	-197.15225	705.23357	-801.01784	-182.00809	583.91146	-803.84117	-152.85857	1076.57664	-386.96551	-137.32794	968.37163	-394.80938	-239.37174	943.64511	-380.10279	-263.21195	1056.34602	-383.60304	-185.66917	934.97624	-363.25620	-110.79906	1090.31434	-767.08833	-66.30900	956.59422	-770.32241	-212.83375	1056.54911	-793.51576	-173.75507	924.98690	-797.30384	-138.98023	1285.06936	-438.50340	-312.17238	1322.13225	-496.76651	-139.45685	1307.07020	-677.32440	-317.02436	1332.57288	-606.65039	-123.84172	1847.76124	-544.44179	-80.55482	1776.38397	-378.19568	-97.09930	1783.17741	-710.58179	-24.60304	1729.78296	-517.11773	-26.75446	1727.84833	-576.09825	-147.43290	1648.85929	-288.65297	-319.24213	1505.93188	-311.52117	-296.27961	1538.00462	-227.88605	-147.01002	1461.39889	-245.43864	-61.90604	1446.74765	-276.45783	-80.06886	1410.81549	-253.79245	-174.87450	1706.34342	-801.18921	-340.56389	1519.78507	-782.17109	-322.74671	1554.01566	-862.95098	-266.39870	1505.88595	-886.07506	-144.77866	1380.35232	-896.98475	-173.17359	1359.85235	-919.91657	-226.52958	1178.80450	-462.54243	-232.84076	1204.76592	-667.77162	-202.17993	1216.01428	-475.82335	-209.13189	1230.97289	-633.25080	
197	1.96000000	-202.06773	768.36231	-400.13817	-159.75762	675.37686	-399.19606	-210.49892	334.72895	-423.05413	-284.56402	333.73424	-494.14677	-149.58476	201.79809	-388.34675	-67.78749	216.12725	-423.71273	-115.41567	809.72184	-790.25725	-107.93390	724.85673	-818.64145	-120.53207	385.10549	-789.12202	-201.65494	378.50067	-723.89720	-59.36605	255.54622	-821.25237	13.85930	254.51404	-768.16380	-175.60326	565.76117	-374.04109	-228.80944	690.37488	-371.86238	-257.17943	577.86363	-370.28738	-197.18099	723.98475	-801.29192	-182.95628	602.49884	-804.86824	-153.74891	1093.99579	-385.08912	-138.12798	985.97403	-393.31398	-239.19319	960.56900	-378.34972	-263.79990	1073.08196	-381.40992	-185.44575	952.09858	-361.68478	-111.08550	1108.63728	-766.94812	-65.72854	975.24470	-770.75053	-212.71134	1074.30370	-793.98157	-172.77899	943.05434	-798.69068	-141.01006	1301.96914	-437.64696	-314.38602	1339.07368	-495.65626	-141.04380	1324.12725	-676.71000	-319.06058	1349.15211	-605.83456	-127.42365	1865.46901	-544.17348	-83.54535	1794.76644	-377.60191	-101.40316	1800.92580	-710.49797	-27.74247	1747.90182	-516.68522	-30.09114	1746.06112	-575.97471	-148.35154	1666.05382	-287.33767	-317.41821	1520.33131	-307.48761	-294.88000	1554.24104	-224.56382	-145.38842	1477.48119	-239.75084	-60.05609	1462.77717	-269.92665	-78.25196	1427.12779	-246.74281	-178.52170	1722.06549	-800.81117	-341.38058	1533.62053	-782.30076	-324.30539	1568.53076	-862.68181	-268.56430	1520.01050	-887.55389	-148.39414	1393.58432	-900.90135	-177.40727	1373.43225	-923.43363	-228.35891	1195.65931	-461.71518	-234.60692	1221.64580	-666.94298	-204.31033	1233.30457	-474.81940	-210.99978	1247.72571	-632.47824	
198	1.97000000	-201.01610	784.57286	-399.97851	-160.32784	691.02547	-399.47731	-216.43891	351.97496	-425.89570	-289.99911	348.93128	-498.15495	-155.05972	220.29772	-388.30691	-73.02810	234.76082	-423.16190	-114.86183	827.47629	-791.56205	-108.50860	742.31812	-820.45359	-121.98021	403.02244	-790.50478	-203.26863	394.29479	-724.78127	-58.85826	274.99461	-824.56415	14.18956	274.40675	-770.83468	-178.02153	581.24415	-375.65638	-228.96322	706.66925	-372.10903	-259.20957	595.01759	-370.60076	-197.51323	742.08287	-801.38976	-184.30457	620.48216	-805.29450	-155.14446	1110.90070	-383.18731	-138.18874	1003.38717	-391.47302	-238.75366	976.54221	-377.18087	-264.97411	1088.63726	-379.30838	-185.22308	968.54902	-360.51705	-111.60382	1126.10437	-767.02180	-65.75987	992.96782	-771.98292	-213.29203	1091.33388	-793.75794	-172.74095	960.33733	-799.46707	-143.66614	1318.38738	-436.05976	-317.17039	1354.52785	-495.13244	-142.83826	1340.13360	-675.90635	-321.53984	1364.50870	-605.37740	-130.65013	1882.24386	-543.86033	-86.33582	1812.02015	-377.21382	-105.18298	1817.61738	-710.40152	-30.82989	1764.85108	-516.23571	-33.31379	1763.02460	-575.64967	-148.86048	1682.02915	-286.21138	-315.26091	1533.70557	-304.06789	-293.46529	1569.24894	-221.45438	-143.49803	1492.29368	-234.35487	-57.94347	1477.45161	-263.68853	-76.18424	1442.14336	-240.11640	-181.68546	1737.25876	-800.34053	-341.92430	1546.81260	-782.47503	-325.36762	1582.15687	-862.54540	-270.22867	1533.35048	-888.76737	-151.86294	1405.98581	-904.94548	-181.49587	1386.14360	-927.02848	-230.49577	1211.63742	-460.63123	-236.08182	1237.22666	-665.92797	-206.43828	1248.98391	-473.54865	-212.70703	1263.30418	-631.72752	
199	1.98000000	-199.19974	799.65012	-399.48805	-161.19728	705.48630	-399.14669	-222.10779	368.27448	-428.19180	-295.78087	363.64852	-500.82140	-160.46415	237.85184	-388.30265	-78.43566	251.82945	-423.87176	-114.41668	844.24017	-792.61366	-109.00584	759.10494	-821.83071	-123.57298	420.09652	-792.10402	-205.06012	409.20204	-726.21790	-58.70405	293.45690	-827.50183	14.38201	293.45863	-773.51215	-181.15131	595.68169	-376.89229	-229.93455	722.26547	-372.44270	-262.19446	611.22313	-371.92885	-197.78776	759.51699	-801.51132	-185.54189	637.86463	-805.53859	-157.26179	1127.10500	-381.20474	-138.62484	1020.08156	-389.23695	-238.89081	991.58772	-376.40269	-266.87660	1103.14848	-378.14636	-185.69318	984.25710	-359.41316	-112.47571	1142.57499	-767.22243	-66.23621	1009.66862	-773.44906	-214.37333	1107.44690	-793.22058	-173.33391	976.72978	-799.86673	-146.76666	1334.21560	-433.92632	-320.31740	1368.59434	-495.16606	-144.85669	1355.25821	-674.84385	-324.37396	1378.71645	-605.30380	-133.60201	1898.09536	-543.43933	-88.90508	1828.25704	-376.90499	-108.41872	1833.18903	-710.08451	-33.88938	1780.73583	-515.90307	-36.45407	1778.79784	-575.17392	-149.06560	1697.15182	-285.28859	-312.95300	1546.39993	-301.33473	-291.89696	1583.14720	-218.96791	-141.47297	1506.14685	-229.36795	-55.77923	1490.99947	-257.88451	-74.07439	1456.16527	-233.86064	-184.23894	1751.98608	-800.04596	-342.36408	1559.71261	-782.29150	-326.12372	1595.20000	-862.53417	-271.51237	1546.08487	-889.64071	-155.19608	1417.82364	-909.08134	-185.45999	1398.20606	-930.46631	-232.82441	1226.71325	-459.44194	-237.25749	1251.68461	-664.84249	-208.46711	1263.27151	-472.03071	-214.31725	1277.86980	-630.87012	
